<svg id="visual" viewBox="0 0 900 600" width="900" height="600" xmlns="http://www.w3.org/2000/svg" xmlns:xlink="http://www.w3.org/1999/xlink" version="1.1"><path d="M0 398L30 403C60 408 120 418 180 424.3C240 430.7 300 433.3 360 426.8C420 420.3 480 404.7 540 401C600 397.3 660 405.7 720 416C780 426.3 840 438.7 870 444.8L900 451L900 601L870 601C840 601 780 601 720 601C660 601 600 601 540 601C480 601 420 601 360 601C300 601 240 601 180 601C120 601 60 601 30 601L0 601Z" fill="#fff" stroke-linecap="round" stroke-linejoin="miter"></path></svg>