<svg id="visual" viewBox="0 0 900 600" width="900" height="600" xmlns="http://www.w3.org/2000/svg" xmlns:xlink="http://www.w3.org/1999/xlink" version="1.1"><path d="M0 464L75 464L75 397L150 397L150 490L225 490L225 513L300 513L300 420L375 420L375 377L450 377L450 410L525 410L525 476L600 476L600 400L675 400L675 403L750 403L750 499L825 499L825 432L900 432L900 500L900 601L900 601L825 601L825 601L750 601L750 601L675 601L675 601L600 601L600 601L525 601L525 601L450 601L450 601L375 601L375 601L300 601L300 601L225 601L225 601L150 601L150 601L75 601L75 601L0 601Z" fill="#fff" stroke-linecap="square" stroke-linejoin="miter"></path></svg>