<svg id="visual" viewBox="0 0 900 600" width="900" height="600" xmlns="http://www.w3.org/2000/svg" xmlns:xlink="http://www.w3.org/1999/xlink" version="1.1"><path d="M0 466L30 455.7C60 445.3 120 424.7 180 422.7C240 420.7 300 437.3 360 450.7C420 464 480 474 540 478.3C600 482.7 660 481.3 720 466.7C780 452 840 424 870 410L900 396L900 601L870 601C840 601 780 601 720 601C660 601 600 601 540 601C480 601 420 601 360 601C300 601 240 601 180 601C120 601 60 601 30 601L0 601Z" fill="#fff" stroke-linecap="round" stroke-linejoin="miter"></path></svg>